# xmcd CD database file
#
# Track frame offsets:
#	150
#	14192
#	27430
#	39110
#	52745
#	69947
#	84350
#	95880
#	110472
#	123542
#	137375
#	153270
#
# Disc length: 2227 seconds
#
# Revision: 0
# Processed by: cddbd v1.5.2PL0 Copyright (c) Steve Scherf et al.
# Submitted via: CDex 1.51
#
DISCID=9208b10c
DTITLE=Jazz Sampler - Vom Rag zum Beat - Stilarten des Jazz 2_2
DYEAR=1900
DGENRE=Jazz
TTITLE0=Mainstream - Boogie Woogie Session (Medium Boogie)
TTITLE1=Mainstream - Whirlpool (Fast Jump)
TTITLE2=Afro Cuban - Bossa Nova - Santiago de Cuba (Fast Afro-Cubano)
TTITLE3=Afro Cuban - Bossa Nova - Habana Negra (Slow Afro-Cubano)
TTITLE4=Afro Cuban - Bossa Nova - Bossa de Bahia (Slow Bossa Nova)
TTITLE5=Afro Cuban - Bossa Nova - Santos (Bossa Nova)
TTITLE6=Cool - Hard Bop - Jazz-Beat - Jive in Five (5/4 Jazz)
TTITLE7=Cool - Hard Bop - Jazz-Beat - Walking (Slow Bounce)
TTITLE8=Cool - Hard Bop - Jazz-Beat - Sweet Belinda (Jazz Waltz)
TTITLE9=Cool - Hard Bop - Jazz-Beat - Feeling lonely (Gospel)
TTITLE10=Cool - Hard Bop - Jazz-Beat - Funky Paradise (Jazz Beat)
TTITLE11=Cool - Hard Bop - Jazz-Beat - Key West (Fast Beat)
EXTD=
EXTT0=
EXTT1=
EXTT2=
EXTT3=
EXTT4=
EXTT5=
EXTT6=
EXTT7=
EXTT8=
EXTT9=
EXTT10=
EXTT11=
PLAYORDER=
